<?xml version="1.0" standalone="no"?><!DOCTYPE svg PUBLIC "-//W3C//DTD SVG 1.1//EN" "http://www.w3.org/Graphics/SVG/1.1/DTD/svg11.dtd"><svg t="1704508548418" class="icon" viewBox="0 0 1024 1024" version="1.1" xmlns="http://www.w3.org/2000/svg" p-id="5787" xmlns:xlink="http://www.w3.org/1999/xlink" width="200" height="200"><path d="M4.413793 186.821149m99.115481-27.977735l463.62116-130.868257q99.115481-27.977736 127.093216 71.137746l149.081363 528.143921q27.977736 99.115481-71.137745 127.093217l-463.62116 130.868257q-99.115481 27.977736-127.093216-71.137746l-149.081363-528.143921q-27.977736-99.115481 71.137745-127.093217Z" fill="#0F62FE" p-id="5788"></path><path d="M264.827586 239.816092m147.126437 0l460.505747 0q147.126437 0 147.126437 147.126437l0 489.931034q0 147.126437-147.126437 147.126437l-460.505747 0q-147.126437 0-147.126437-147.126437l0-489.931034q0-147.126437 147.126437-147.126437Z" fill="#13227a" fill-opacity=".4" p-id="5789" data-spm-anchor-id="a313x.search_index.0.i3.19aa3a81xSxN5P" class="selected"></path><path d="M610.574713 793.011494c0 17.875862 14.491954 32.367816 32.367816 32.367816s32.367816-14.491954 32.367816-32.367816v-124.321839a3.678161 3.678161 0 0 1 3.678161-3.678161H803.310345c17.875862 0 32.367816-14.491954 32.367816-32.367816s-14.491954-32.367816-32.367816-32.367816h-124.321839a3.678161 3.678161 0 0 1-3.678161-3.678161V470.804598c0-17.875862-14.491954-32.367816-32.367816-32.367816s-32.367816 14.491954-32.367816 32.367816v125.793103a3.678161 3.678161 0 0 1-3.678161 3.678161H481.103448c-17.875862 0-32.367816 14.491954-32.367816 32.367816s14.491954 32.367816 32.367816 32.367816h125.793104a3.678161 3.678161 0 0 1 3.678161 3.678161V793.011494z" fill="#FFFFFF" p-id="5790"></path></svg>