<?xml version="1.0" standalone="no"?><!DOCTYPE svg PUBLIC "-//W3C//DTD SVG 1.1//EN" "http://www.w3.org/Graphics/SVG/1.1/DTD/svg11.dtd"><svg t="1704687350871" class="icon" viewBox="0 0 1024 1024" version="1.1" xmlns="http://www.w3.org/2000/svg" p-id="4066" xmlns:xlink="http://www.w3.org/1999/xlink" width="200" height="200"><path d="M303.86176 280.02816h288.768c45.568 0 82.432 36.864 82.432 82.432v330.24c0 45.568-36.864 82.432-82.432 82.432h-288.768c-45.568 0-82.432-36.864-82.432-82.432v-330.24c0-45.568 36.864-82.432 82.432-82.432z" fill="#CAE4FF" p-id="4067"></path><path d="M334.848 200.192c17.408 0 31.744-14.336 31.744-31.744V72.704c0-17.408-14.336-31.744-31.744-31.744-17.408 0-31.744 14.336-31.744 31.744v95.232c0 17.92 14.336 32.256 31.744 32.256zM430.08 168.448h63.488c17.408 0 31.744-14.336 31.744-31.744 0-17.408-14.336-31.744-31.744-31.744H430.08c-17.408 0-31.744 14.336-31.744 31.744 0 17.408 14.336 31.744 31.744 31.744z m159.232 31.744c17.408 0 31.744-14.336 31.744-31.744V72.704c0-17.408-14.336-31.744-31.744-31.744-17.408 0-31.744 14.336-31.744 31.744v95.232c0 17.92 14.336 32.256 31.744 32.256zM494.08 867.84H207.872c-17.408 0-31.744-14.336-31.744-31.744V200.192c0-17.408 14.336-31.744 31.744-31.744h31.744c17.408 0 31.744-14.336 31.744-31.744 0-17.408-14.336-31.744-31.744-31.744h-31.744c-52.736 0-95.232 42.496-95.744 95.232v635.904c0 52.736 43.008 95.232 95.744 95.232h286.208c17.408 0 31.744-14.336 31.744-31.744 0-17.408-14.336-31.744-31.744-31.744z m190.976-699.392h31.744c17.408 0 31.744 14.336 31.744 31.744v287.232c0 17.408 14.336 31.744 31.744 31.744 17.408 0 31.744-14.336 31.744-31.744V200.192c0-52.736-42.496-95.232-95.232-95.232h-31.744c-17.408 0-31.744 14.336-31.744 31.744-0.512 17.408 13.824 31.744 31.744 31.744z m258.56 607.744v-50.688c-1.536-88.064-73.728-157.696-161.792-156.672-86.016 1.536-155.136 70.656-156.672 156.672v50.688c-41.472 12.288-65.024 56.32-52.736 97.792 10.24 33.28 40.96 56.32 75.776 55.808h271.36c43.52 0.512 78.848-34.304 79.36-77.312 1.024-35.328-22.016-66.048-55.296-76.288z m-159.232-145.92c52.736 0 95.232 43.008 95.232 95.232v47.104h-190.976v-47.104c0.512-52.736 43.008-95.232 95.744-95.232z m135.68 236.032h-271.36c-8.192 0-14.848-6.656-14.848-14.848 0-8.192 6.656-14.848 14.848-14.848h271.36c8.192 0 14.848 6.656 14.848 14.848 0.512 8.192-6.144 14.848-14.848 14.848z" fill="#0972E7" p-id="4068"></path><path d="M400.896 614.912c6.144 6.144 13.824 9.216 22.528 9.216 8.192 0 16.384-3.584 22.528-9.216l202.24-202.24c11.776-12.8 11.264-33.28-1.536-45.056-12.288-11.264-31.232-11.264-43.52 0L423.424 547.84 333.312 457.728c-11.776-12.8-32.256-13.824-45.056-1.536-12.8 11.776-13.824 32.256-1.536 45.056l1.536 1.536 112.64 112.128z" fill="#0972E7" p-id="4069"></path></svg>