<?xml version="1.0" standalone="no"?><!DOCTYPE svg PUBLIC "-//W3C//DTD SVG 1.1//EN" "http://www.w3.org/Graphics/SVG/1.1/DTD/svg11.dtd"><svg t="1704512027387" class="icon" viewBox="0 0 1024 1024" version="1.1" xmlns="http://www.w3.org/2000/svg" p-id="12332" xmlns:xlink="http://www.w3.org/1999/xlink" width="200" height="200"><path d="M0 503.875148a503.875148 503.858361 90 1 0 1007.716721 0 503.875148 503.858361 90 1 0-1007.716721 0Z" fill="#F2A430" p-id="12333"></path><path d="M822.557377 484.88918c0-18.381639-23.316984-33.288393-52.072918-33.288393a75.540984 75.540984 0 0 0-25.683934 4.331016l-39.415607-110.894164c-9.064918-14.722098-10.206426-30.518557-24.576-30.518557H618.76459l-8.846688-44.820984C606.275148 257.040787 588.867148 251.803279 574.480787 251.803279h-141.748459c-14.386361 0-31.895082 5.203934-35.437115 17.911606l-8.863475 44.820984h-62.027541c-14.369574 0-18.348066 17.592656-24.592787 30.50177l-39.39882 110.894164a75.675279 75.675279 0 0 0-25.683934-4.331016c-28.755934 0-52.072918 14.906754-52.072918 33.288393 0 18.381639 23.316984 33.288393 52.072918 33.288394l0.688262-0.016787c0.134295 0.822557 0.201443 1.577967 0.402885 2.434098-2.434098 41.631475 20.916459 177.135213 24.945312 197.380197 5.237508 22.74623 13.832393 26.640787 28.201967 26.640787H344.131148c14.369574 0 22.79659-11.935475 22.79659-26.640787v-28.907016c6.765115 0.688262 13.815607 1.342951 21.487213 1.779409 83.900852 4.985705 158.434623 5.590033 230.366426 0 7.554098-0.587541 14.654951-1.29259 21.520787-2.064786v29.192393c0 14.705311 8.393443 26.640787 22.779803 26.640787h53.164066c14.369574 0 24.576-11.180066 28.201967-26.640787 8.427016-24.173115 42.537967-166.576262 33.657705-200.183607 25.129967-2.350164 44.451672-16.16577 44.451672-32.902295z m-498.939803 86.066361a33.57377 33.57377 0 1 1 0 67.147541 33.57377 33.57377 0 0 1 0-67.147541z m330.600918-211.649049c14.386361 0 19.707803 6.966557 25.146754 25.683934l13.009836 53.281574c0 14.705311-11.650098 26.640787-26.036459 26.640787 0 0-37.216525 5.908984-74.130885 10.894688-36.931148 4.952131-131.508459 3.122361-159.47541 0a12576.919082 12576.919082 0 0 1-91.857836-10.894688c-14.386361 0-26.036459-11.935475-26.036459-26.640787l13.026623-53.264787c5.405377-18.734164 10.743607-25.683934 25.129967-25.683934h301.223869z m32.650492 278.79659a33.57377 33.57377 0 1 1 0-67.147541 33.57377 33.57377 0 0 1 0 67.147541z" fill="#FFFFFF" p-id="12334"></path></svg>