<?xml version="1.0" standalone="no"?><!DOCTYPE svg PUBLIC "-//W3C//DTD SVG 1.1//EN" "http://www.w3.org/Graphics/SVG/1.1/DTD/svg11.dtd"><svg t="1704512214577" class="icon" viewBox="0 0 1024 1024" version="1.1" xmlns="http://www.w3.org/2000/svg" p-id="20574" xmlns:xlink="http://www.w3.org/1999/xlink" width="200" height="200"><path d="M512 512m-512 0a512 512 0 1 0 1024 0 512 512 0 1 0-1024 0Z" fill="#64B061" p-id="20575"></path><path d="M662.2592 636.3392c0.0896 0.64 0.1408 1.3184 0.1408 2.0224v136.192c0 12.2752 10.0864 22.3232 22.4 22.3232s22.4-10.048 22.4-22.3232v-89.3056c0-1.9328 0.384-3.6736 1.0624-5.184a10.56 10.56 0 0 1 5.12-9.8176l109.4784-67.9168v-164.864c0-31.6288-19.7504-56.4736-43.8912-56.4736s-43.8784 24.832-43.8784 56.4608v141.76l0.192 0.192a10.7904 10.7904 0 0 1-0.6144 10.56c-1.2288 4.8256-5.1584 7.872-10.56 7.872h-0.0896l-61.76 38.5024z m-21.8112-1.4464c-1.2288-4.3392 0.0768-9.7792 3.9296-11.7504l68.7616-41.2416V437.4528c0-44.032 29.632-79.0528 65.8304-79.0528C815.1808 358.4 844.8 393.408 844.8 437.4528v171.1104c0.128 3.648-1.3184 7.4112-4.3776 8.9728L729.6 686.72v87.8464C729.6 799.104 709.44 819.2 684.8 819.2S640 799.104 640 774.5536v-136.192c0-1.2416 0.1536-2.3936 0.448-3.4688zM307.2 686.592l-108.3264-67.8016c-1.92 2.4576-4.9408 3.8912-8.6656 3.8912-6.6048 0-11.008-4.5056-11.008-11.264V441.344c0-43.9296 29.7216-78.848 66.048-78.848s66.048 34.9184 66.048 78.848v135.104a8.3328 8.3328 0 0 1 7.8976 1.408l72.3584 46.144c4.3904 3.3792 6.5792 9.0112 4.3904 14.6432v1.1264a9.6 9.6 0 0 1-0.9728 1.5744v132.6848c0 24.832-19.7504 45.1712-43.8784 45.1712C326.9504 819.2 307.2 798.8736 307.2 774.016v-87.424z m21.4912-6.5152c0.2944 1.1136 0.448 2.304 0.448 3.584v90.3552c0 12.416 9.8816 22.5792 21.952 22.5792 12.0576 0 21.9392-10.1632 21.9392-22.5792V638.3104l-65.152-39.744a11.008 11.008 0 0 1-7.5904 2.7264c-6.6048 0-11.008-4.5056-11.008-11.264V441.344c0-31.5392-19.8144-56.32-44.032-56.32s-44.032 24.7808-44.032 56.32v157.056a12.672 12.672 0 0 1 8.32 0.832l114.048 70.9248a10.624 10.624 0 0 1 5.1072 9.9328zM531.456 756.736V597.9136c0-6.7584 4.4032-11.264 11.008-11.264s11.008 4.5056 11.008 11.264V756.736c0 6.7584-4.4032 11.264-11.008 11.264s-11.008-4.5056-11.008-11.264z m-66.048 0V597.9136c0-6.7584 4.4032-11.264 11.008-11.264s11.008 4.5056 11.008 11.264V756.736c0 6.7584-4.4032 11.264-11.008 11.264s-11.008-4.5056-11.008-11.264z m188.2368-236.544c6.6176 0 11.008 4.5056 11.008 11.264s-4.3904 11.264-11.008 11.264H366.3488c-6.6048 0-11.008-4.5056-11.008-11.264s4.4032-11.264 11.008-11.264h66.048v-104.7552c0-45.056 33.024-75.4688 77.056-75.4688 44.032 0 77.056 29.2864 77.056 75.4688v104.7552h67.1488z m-89.1648 0v-94.6176c0-38.2976-23.1168-63.0784-55.04-63.0784-31.9232 0-55.04 24.7808-55.04 63.0784v94.6176h110.08zM776.96 351.232c-30.8224 0-55.04-24.7808-55.04-56.32 0-31.5392 24.2176-56.32 55.04-56.32s55.04 24.7808 55.04 56.32c0 31.5392-24.2176 56.32-55.04 56.32z m0-90.112c-18.7136 0-33.024 14.6432-33.024 33.792 0 19.1488 14.3104 33.792 33.024 33.792s33.024-14.6432 33.024-33.792c0-19.1488-14.3104-33.792-33.024-33.792z m-538.3168 90.112c-30.8224 0-55.04-24.7808-55.04-56.32 0-31.5392 24.2176-56.32 55.04-56.32s55.04 24.7808 55.04 56.32c0 31.5392-25.3184 56.32-55.04 56.32z m0-90.112c-18.7136 0-33.024 14.6432-33.024 33.792 0 19.1488 14.3104 33.792 33.024 33.792s33.024-14.6432 33.024-33.792c0-19.1488-15.4112-33.792-33.024-33.792z m271.9104 56.32c-30.8224 0-55.04-24.7808-55.04-56.32 0-31.5392 24.2176-56.32 55.04-56.32s55.04 24.7808 55.04 56.32c0 31.5392-24.2176 56.32-55.04 56.32z m0-90.112c-18.7136 0-33.024 14.6432-33.024 33.792 0 19.1488 14.3104 33.792 33.024 33.792s33.024-14.6432 33.024-33.792c0-18.0224-14.3104-33.792-33.024-33.792z" fill="#FFFFFF" p-id="20576"></path></svg>