<?xml version="1.0" standalone="no"?><!DOCTYPE svg PUBLIC "-//W3C//DTD SVG 1.1//EN" "http://www.w3.org/Graphics/SVG/1.1/DTD/svg11.dtd"><svg t="1704436814562" class="icon" viewBox="0 0 1024 1024" version="1.1" xmlns="http://www.w3.org/2000/svg" p-id="9348" xmlns:xlink="http://www.w3.org/1999/xlink" width="200" height="200"><path d="M7.314286 504.685714c0 277.942857 226.742857 504.685714 504.685714 504.685715 277.942857 0 504.685714-226.742857 504.685714-504.685715C1016.685714 226.742857 789.942857 0 512 0 234.057143 0 7.314286 226.742857 7.314286 504.685714z" fill="#2684FF" p-id="9349"></path><path d="M292.571429 460.8l175.542857 175.542857c21.942857 21.942857 21.942857 36.571429 0 58.514286-21.942857 21.942857-36.571429 21.942857-58.514286 0L234.057143 519.314286c-21.942857-21.942857-21.942857-36.571429 0-58.514286 14.628571-14.628571 36.571429-14.628571 58.514286 0z" fill="#FFFFFF" p-id="9350"></path><path d="M775.314286 394.971429L475.428571 694.857143c-21.942857 21.942857-36.571429 21.942857-58.514285 0-21.942857-21.942857-21.942857-36.571429 0-58.514286l299.885714-299.885714c21.942857-21.942857 36.571429-21.942857 58.514286 0 14.628571 21.942857 14.628571 43.885714 0 58.514286z" fill="#FFFFFF" p-id="9351"></path></svg>