<?xml version="1.0" standalone="no"?><!DOCTYPE svg PUBLIC "-//W3C//DTD SVG 1.1//EN" "http://www.w3.org/Graphics/SVG/1.1/DTD/svg11.dtd"><svg t="1704511853180" class="icon" viewBox="0 0 1024 1024" version="1.1" xmlns="http://www.w3.org/2000/svg" p-id="8213" xmlns:xlink="http://www.w3.org/1999/xlink" width="200" height="200"><path d="M297.861 279.613h-90.085a3.5 3.5 0 0 1-3.5-3.5V151.6a3.5 3.5 0 0 1 3.5-3.5h90.085a3.5 3.5 0 0 1 3.5 3.5v124.514a3.5 3.5 0 0 1-3.5 3.499z m-86.585-7h83.085V155.1h-83.085v117.513z" p-id="8214"></path><path d="M207.776 276.113h90.085V151.6h-90.085v124.513z" fill="#F3EC9B" p-id="8215"></path><path d="M865.872 853.688H159.454a3.5 3.5 0 0 1-3.5-3.5V376.352a3.5 3.5 0 0 1 1.517-2.884L510.017 131.07a3.502 3.502 0 0 1 3.981 0.01L867.87 377.073a3.503 3.503 0 0 1 1.502 2.874v470.241a3.5 3.5 0 0 1-3.5 3.5z m-702.918-7h699.418V381.777L511.989 138.208 162.954 378.193v468.495z" p-id="8216"></path><path d="M159.454 376.352v473.837h706.418V379.947L512 133.953 159.454 376.352z" fill="#F3EC9B" p-id="8217"></path><path d="M776.683 968.6H251.188a3.5 3.5 0 0 1-3.5-3.5V509.675a3.5 3.5 0 0 1 3.5-3.5h525.495a3.5 3.5 0 0 1 3.5 3.5V965.1c0 1.932-1.568 3.5-3.5 3.5z m-521.995-7h518.495V513.175H254.688V961.6z" p-id="8218"></path><path d="M251.188 965.1h525.495V509.675H251.188V965.1z" fill="#FFFFFF" p-id="8219"></path><path d="M706.556 847.16H317.443a3.5 3.5 0 0 1-3.5-3.5V573.708a3.5 3.5 0 0 1 3.5-3.5h389.112a3.5 3.5 0 0 1 3.5 3.5V843.66a3.5 3.5 0 0 1-3.499 3.5z m-385.613-7h382.112V577.208H320.943V840.16z" p-id="8220"></path><path d="M708.982 847.16H318.946a3.5 3.5 0 0 1-3.5-3.5V575.065a3.5 3.5 0 0 1 3.5-3.5h390.036a3.5 3.5 0 0 1 3.5 3.5V843.66a3.5 3.5 0 0 1-3.5 3.5z m-386.536-7h383.036V578.565H322.446V840.16z" p-id="8221"></path><path d="M318.946 843.66h390.036V575.065H318.946V843.66z" fill="#F3EC9B" p-id="8222"></path><path d="M650.983 924.193H318.83a3.5 3.5 0 0 1-3.5-3.5v-26.111a3.5 3.5 0 0 1 3.5-3.5h332.153a3.5 3.5 0 0 1 3.5 3.5v26.111a3.5 3.5 0 0 1-3.5 3.5z m-328.653-7h325.153v-19.111H322.33v19.111z" p-id="8223"></path><path d="M318.83 920.693h332.153v-26.111H318.83v26.111z" fill="#C2D731" p-id="8224"></path><path d="M710.599 924.193h-26.082a3.5 3.5 0 0 1-3.5-3.5v-26.111a3.5 3.5 0 0 1 3.5-3.5h26.082a3.5 3.5 0 0 1 3.5 3.5v26.111a3.5 3.5 0 0 1-3.5 3.5z m-22.582-7h19.082v-19.111h-19.082v19.111z" p-id="8225"></path><path d="M684.517 920.693h26.082v-26.111h-26.082v26.111z" fill="#8AB746" p-id="8226"></path><path d="M513.328 787.1a3.49 3.49 0 0 1-2.349-0.906l-41.795-37.866a3.5 3.5 0 0 1-1.141-2.346l-2.6-36.565a3.501 3.501 0 0 1 0.888-2.588l21.666-24.104-21.976-32.992a3.5 3.5 0 0 1 0.113-4.04l18.097-24.13-19.509-29.277a3.497 3.497 0 0 1-0.587-1.94v-52.323c-26.76-9.16-50.723-26.672-67.691-49.523-18.091-24.364-27.653-53.261-27.653-83.566 0-77.531 63.076-140.606 140.606-140.606 77.532 0 140.609 63.076 140.609 140.606 0 28.554-8.576 56.073-24.803 79.583-15.389 22.296-36.575 39.551-61.384 50.017V736.61c0 0.928-0.369 1.818-1.025 2.475l-46.992 46.992a3.492 3.492 0 0 1-2.474 1.023z m-38.402-43.017l38.284 34.686 43.611-43.61v-202.97a3.5 3.5 0 0 1 2.193-3.247c51.023-20.53 83.993-69.207 83.993-124.01 0-73.671-59.937-133.606-133.609-133.606-73.671 0-133.606 59.936-133.606 133.606 0 58.241 37.339 109.371 92.915 127.231a3.5 3.5 0 0 1 2.429 3.332v53.79l20.294 30.456a3.499 3.499 0 0 1-0.113 4.04l-18.098 24.131 22.109 33.192a3.5 3.5 0 0 1-0.31 4.28l-22.488 25.018 2.396 33.681zM506.8 420.188c-25.691 0-46.593-20.908-46.593-46.608 0-25.684 20.901-46.579 46.593-46.579s46.593 20.896 46.593 46.579c0 25.699-20.902 46.608-46.593 46.608z m0-86.188c-21.832 0-39.593 17.755-39.593 39.579 0 21.84 17.761 39.608 39.593 39.608 21.831 0 39.593-17.768 39.593-39.608 0-21.824-17.762-39.579-39.593-39.579z" p-id="8227"></path><path d="M560.321 532.188v204.419L513.329 783.6l-6.529-5.921V416.688c23.741-0.016 43.093-19.366 43.093-43.108 0-23.728-19.352-43.064-43.093-43.079v-62.633l2.599-0.042c75.5 0 137.109 61.593 137.109 137.106 0 57.534-35.76 106.966-86.187 127.256zM506.8 777.679l-35.266-31.945-2.6-36.565 23.481-26.123-23.481-35.253 19.583-26.11-20.882-31.337v-54.85c-55.224-17.747-95.344-69.621-95.344-130.563 0-74.648 60.163-135.679 134.508-137.064V330.5c-23.742 0-43.093 19.352-43.093 43.079 0 23.742 19.351 43.108 43.093 43.108v360.992z" fill="#C2D731" p-id="8228"></path><path d="M907.638 430.628c-0.7 0-1.397-0.21-1.994-0.624l-393.657-272.84-391.05 267.624a3.5 3.5 0 1 1-5.475-2.786l-2.599-88.785a3.5 3.5 0 0 1 1.496-2.973L507.396 56.03a3.5 3.5 0 0 1 3.987-0.012l398.24 274.214a3.501 3.501 0 0 1 1.515 2.883v94.014a3.5 3.5 0 0 1-3.5 3.499zM512 149.414c0.697 0 1.395 0.208 1.994 0.624l390.144 270.406v-85.49L509.412 63.159 119.916 334.902l2.356 80.49 387.751-265.366a3.497 3.497 0 0 1 1.977-0.612z" p-id="8229"></path><path d="M116.362 333.114L509.398 58.9l398.239 274.214v94.014L512 152.914 118.961 421.899l-2.599-88.785z" fill="#31BDEB" p-id="8230"></path></svg>