<?xml version="1.0" standalone="no"?><!DOCTYPE svg PUBLIC "-//W3C//DTD SVG 1.1//EN" "http://www.w3.org/Graphics/SVG/1.1/DTD/svg11.dtd"><svg t="1704418296136" class="icon" viewBox="0 0 1024 1024" version="1.1" xmlns="http://www.w3.org/2000/svg" p-id="4105" xmlns:xlink="http://www.w3.org/1999/xlink" width="200" height="200"><path d="M340.331 340.31a2.3 2.3 0 1 0 98.133 0 2.3 2.3 0 1 0-98.133 0zM168.619 340.33a2.299 2.299 0 1 0 98.09 0 2.299 2.299 0 1 0-98.09 0zM561.067 389.376c27.136 0 49.024-21.952 49.024-49.067 0-27.072-21.867-49.024-49.024-49.024-27.115 0-49.046 21.931-49.046 49.024 0 27.115 21.931 49.067 49.046 49.067z" fill="" p-id="4106"></path><path d="M778.73 340.31C778.73 152.66 604.076 0 389.398 0 174.677 0 0 152.661 0 340.31 0 444.97 53.483 541.332 147.179 606.42v175.467c0 8.043 4.586 15.488 11.861 19.136 3.008 1.493 6.315 2.219 9.579 2.219 4.544 0 9.066-1.43 12.842-4.31l161.494-121.109c17.024 1.877 31.936 2.816 46.442 2.816 214.678 0 389.334-152.683 389.334-340.33zM339.606 634.367c-5.482-0.79-11.093 0.747-15.509 4.075L190.059 738.987V594.944c0-7.253-3.648-13.952-9.728-17.963C92.97 520.043 42.859 433.75 42.859 340.288c0-164.01 155.434-297.45 346.538-297.45 191.019 0 346.518 133.46 346.518 297.493S580.459 637.76 389.419 637.76c-15.083 0.021-30.891-1.045-49.814-3.392z" fill="#1296db" p-id="4107"></path><path d="M886.699 301.696c-9.494-7.061-22.891-5.056-29.952 4.437-7.083 9.494-5.056 22.891 4.437 29.952 76.181 56.64 119.957 138.624 119.957 225.003 0 93.504-50.112 179.755-137.45 236.757-6.059 3.968-9.75 10.667-9.75 17.92v143.958L699.925 859.22c-4.373-3.285-9.877-4.757-15.509-4.074-18.837 2.325-34.645 3.413-49.792 3.413-96.49 0-186.133-33.259-252.33-93.717-8.726-8-22.315-7.36-30.294 1.344-7.979 8.746-7.339 22.293 1.387 30.293 74.112 67.712 174.037 104.917 281.237 104.917 14.592 0 29.504-0.874 46.464-2.752l161.43 121.067A21.48 21.48 0 0 0 855.38 1024c3.286 0 6.592-0.747 9.579-2.24 7.296-3.584 11.84-11.072 11.84-19.136V827.179c93.739-65.046 147.2-161.43 147.2-266.091 0-100.053-50.048-194.624-137.301-259.392z" fill="#1296db" p-id="4108"></path></svg>