<?xml version="1.0" standalone="no"?><!DOCTYPE svg PUBLIC "-//W3C//DTD SVG 1.1//EN" "http://www.w3.org/Graphics/SVG/1.1/DTD/svg11.dtd"><svg t="1704509918881" class="icon" viewBox="0 0 1034 1024" version="1.1" xmlns="http://www.w3.org/2000/svg" p-id="7014" xmlns:xlink="http://www.w3.org/1999/xlink" width="201.953125" height="200"><path d="M510.713608 611.252602c15.637389-16.234997 26.095516-44.322537 26.095516-44.322537l0.099601-1.69322c-15.637389-12.848556-30.278767-16.733003-42.828519-16.334598h-0.796809c-12.450151-0.398405-27.191129 3.486042-42.728918 16.334598l0.099601 1.69322s10.458127 28.08754 26.095516 44.322537l-49.6014 116.732613 66.135201 60.856337 0.796809-0.796809v0.697208l66.135201-60.856337-49.501799-116.633012z" fill="#FF8500" p-id="7015"></path><path d="M609.119599 36.553643H378.542807c-208.166521 0-378.484583 170.318062-378.484583 378.484583v230.477191c0 208.166521 170.318062 378.484583 378.484583 378.484583h230.477191c208.166521 0 378.484583-170.318062 378.484583-378.484583V415.038226c0.099601-208.166521-170.218461-378.484583-378.384982-378.484583z m35.159226 764.339655H343.383581c-42.230911 0-76.493726-34.262815-76.493726-76.493726 0-2.091625 0.099601-4.282852 0.298804-6.374477 0.498006-5.976072 1.693221-11.952145 3.585643-17.729015 20.517848-83.665013 87.54946-149.202607 172.110884-167.429627 0.697208 0.298804 1.394417 0.498006 2.191227 0.796809 0.199202 0 0.298804-0.099601 0.498006-0.099601-53.983854-19.920241-92.52952-71.81247-92.529521-132.569205 0-77.987744 63.346367-141.23451 141.334112-141.23451 77.987744 0 141.23451 63.246766 141.23451 141.23451 0 60.159128-37.649256 111.553351-90.637097 131.971598 84.561424 18.326622 151.593036 83.764614 172.110884 167.429627 1.892423 5.77687 3.087637 11.653341 3.585643 17.729015 0.199202 2.091625 0.298804 4.183251 0.298804 6.374477-0.199202 42.13131-34.462017 76.394125-76.692929 76.394125z" fill="#FF8500" p-id="7016"></path><path d="M494.179807 788.841552z" p-id="7017"></path></svg>