<?xml version="1.0" standalone="no"?><!DOCTYPE svg PUBLIC "-//W3C//DTD SVG 1.1//EN" "http://www.w3.org/Graphics/SVG/1.1/DTD/svg11.dtd"><svg t="1704512135193" class="icon" viewBox="0 0 1024 1024" version="1.1" xmlns="http://www.w3.org/2000/svg" p-id="17007" xmlns:xlink="http://www.w3.org/1999/xlink" width="200" height="200"><path d="M931.072 422.912c-60.9792-62.3104-159.8976-62.3104-220.8768 0l-4.1984 4.2496-4.1984-4.2496c-60.9792-62.3104-159.8976-62.3104-220.8768 0s-60.9792 163.328 0 225.6384l169.5744 173.2608a77.312 77.312 0 0 0 110.9504 0l165.376-168.96 4.1984-4.2496c61.0304-62.3616 61.0304-163.3792 0.0512-225.6896z" fill="#F374C7" p-id="17008"></path><path d="M446.6176 698.8288c-85.9648-87.808-85.9648-230.7584 0-318.5664 42.24-43.1616 98.5088-66.9184 158.464-66.9184 35.6864 0 70.0416 8.3968 100.9664 24.32 30.8736-15.9232 65.28-24.32 100.9664-24.32 28.3648 0 55.9104 5.376 81.5104 15.5648-10.9568-39.6288-31.6416-77.056-62.208-108.2368-95.2832-97.3312-249.8048-97.3312-345.088 0l-6.5024 6.656-6.5024-6.656c-95.2832-97.3312-249.8048-97.3312-345.088 0-95.2832 97.3312-95.2832 255.1808 0 352.5632l264.96 270.6944a120.7808 120.7808 0 0 0 173.3632 0l13.6192-13.9264-128.4608-131.1744z" fill="#F374C7" p-id="17009"></path><path d="M864.7168 382.6176c-53.0432-15.872-112.6912-2.4576-154.4704 40.2432l-4.1984 4.2496-4.1984-4.2496c-60.9792-62.3104-159.8976-62.3104-220.8768 0s-60.9792 163.328 0 225.6384l169.5744 173.2096a77.312 77.312 0 0 0 110.9504 0l165.376-168.96 4.1984-4.2496c8.3968-8.5504 15.4624-17.92 21.5552-27.6992a461.312 461.312 0 0 0-87.9104-238.1824z" fill="#F064BA" p-id="17010"></path><path d="M504.6272 199.68a242.5856 242.5856 0 0 0-23.3984 20.992l-6.5024 6.656-6.5536-6.656c-6.5024-6.656-13.312-12.8-20.3264-18.5344-173.9776 18.688-318.2592 136.448-375.3472 295.7824a248.13056 248.13056 0 0 0 50.5344 75.3152l264.96 270.6944a120.7808 120.7808 0 0 0 173.3632 0l13.6192-13.9264-128.4096-131.1744c-85.9648-87.808-85.9648-230.7584 0-318.5664 42.24-43.1616 98.5088-66.9184 158.464-66.9184 35.6864 0 70.0416 8.3968 100.9664 24.32 27.7504-14.2848 58.3168-22.4768 90.112-24.0128C718.3872 244.3776 616.4992 201.6768 504.6272 199.68z" fill="#F064BA" p-id="17011"></path><path d="M524.288 328.6528c-9.1648-0.5632-18.432-0.9216-27.7504-0.9216-167.0656 0-312.7808 91.0336-390.5536 226.2016a263.3728 263.3728 0 0 0 17.0496 19.3536l264.96 270.6944a120.7808 120.7808 0 0 0 173.3632 0l13.6192-13.9264-128.4096-131.1744c-85.9648-87.808-85.9648-230.7584 0-318.5664 22.4768-22.9888 48.896-40.3456 77.7216-51.6608z" fill="#EE4FA8" p-id="17012"></path><path d="M741.376 398.4384c-11.1104 6.7072-21.6064 14.7456-31.1296 24.4736l-4.1984 4.2496-4.1984-4.2496c-60.9792-62.3104-159.8976-62.3104-220.8768 0s-60.9792 163.328 0 225.6384l169.5744 173.2096a77.312 77.312 0 0 0 110.9504 0l165.376-168.96 4.1984-4.2496c0.4096-0.4096 0.7168-0.8704 1.1264-1.28-33.024-103.4752-101.376-191.0784-190.8224-248.832z" fill="#EE4FA8" p-id="17013"></path><path d="M490.2912 456.5504c-11.8272 0-23.552 0.6144-35.1744 1.4848-33.2288 60.7232-24.6784 138.9056 25.856 190.5152l169.5744 173.2096a77.312 77.312 0 0 0 110.9504 0l130.4576-133.2736c-80.2304-138.5984-229.9904-231.936-401.664-231.936z" fill="#EB3C99" p-id="17014"></path><path d="M393.5744 467.8656c-92.7744 21.7088-174.4896 72.0384-235.3152 141.2608l229.7856 234.752a120.7808 120.7808 0 0 0 173.3632 0l13.6192-13.9264-128.4096-131.1744c-61.0816-62.3104-78.6944-152.4224-53.0432-230.912z" fill="#EB3C99" p-id="17015"></path><path d="M490.2912 588.5952c-15.3088 0-30.4128 0.768-45.312 2.2528 7.5776 21.0432 19.456 40.8064 35.9936 57.7536l169.5744 173.2096a77.312 77.312 0 0 0 110.9504 0l75.6224-77.2096c-84.992-95.6928-208.8448-156.0064-346.8288-156.0064zM389.4272 597.0432a448.70144 448.70144 0 0 0-165.632 79.104l164.1984 167.7312a120.7808 120.7808 0 0 0 173.3632 0l13.6192-13.9264-128.4096-131.1744c-28.5184-29.1328-47.5648-64.4608-57.1392-101.7344z" fill="#E92385" p-id="17016"></path><path d="M189.696 489.5232c-19.968 0-37.4784-14.6432-40.448-34.9696-9.984-67.8912 1.9968-123.2384 35.6864-164.608 47.3088-58.112 117.76-63.744 125.6448-64.2048a40.99072 40.99072 0 0 1 43.264 38.5536c1.28 22.4768-15.7696 41.7792-38.1952 43.2128-1.536 0.1536-43.008 3.9936-67.584 34.7136-18.2272 22.784-24.1664 56.5248-17.7152 100.4032 3.2768 22.3744-12.1856 43.2128-34.56 46.4896-2.0992 0.256-4.1472 0.4096-6.0928 0.4096z" fill="#FFFFFF" p-id="17017"></path></svg>