<?xml version="1.0" standalone="no"?><!DOCTYPE svg PUBLIC "-//W3C//DTD SVG 1.1//EN" "http://www.w3.org/Graphics/SVG/1.1/DTD/svg11.dtd"><svg t="1704512064072" class="icon" viewBox="0 0 1024 1024" version="1.1" xmlns="http://www.w3.org/2000/svg" p-id="13569" xmlns:xlink="http://www.w3.org/1999/xlink" width="200" height="200"><path d="M122.368 329.216h779.264v608.768H122.368V329.216z" fill="#C2E8FF" p-id="13570"></path><path d="M901.632 319.488H122.368c-5.632 0-9.728 4.608-9.728 9.728v608.768c0 5.12 4.608 9.728 9.728 9.728h779.264c5.632 0 9.728-4.608 9.728-9.728V329.216c0-5.12-4.608-9.728-9.728-9.728z m-9.728 19.456v589.312H132.096V338.944h759.808z" fill="#7496C4" p-id="13571"></path><path d="M731.136 475.648c-40.448 0-73.216-32.768-73.216-73.216 0 40.448-32.768 73.216-73.216 73.216s-73.216-32.768-73.216-73.216c0 40.448-32.768 73.216-73.216 73.216s-73.216-32.768-73.216-73.216c0 40.448-32.768 73.216-73.216 73.216s-73.216-32.768-73.216-73.216c0 40.448-32.768 73.216-73.216 73.216s-73.216-32.768-73.216-73.216V329.216h876.544v73.216c0 40.448-32.768 73.216-73.216 73.216s-73.216-32.768-73.216-73.216c2.048 40.448-30.72 73.216-71.168 73.216z" fill="#F78F8F" p-id="13572"></path><path d="M950.272 319.488H73.728c-5.632 0-9.728 4.608-9.728 9.728v73.216c0 45.568 36.864 82.944 82.944 82.944h4.608c27.648-1.536 52.736-16.896 67.072-40.96l1.536-3.072 1.536 3.072c14.848 25.6 41.984 40.96 71.68 40.96h4.608c27.648-1.536 52.736-16.896 67.072-40.96l1.536-3.072 1.536 3.072c14.848 25.6 41.984 40.96 71.68 40.96h4.608c27.648-1.536 52.736-16.896 67.072-40.96l1.536-3.072 1.536 3.072c14.848 25.6 41.984 40.96 71.68 40.96h4.608c27.648-1.536 52.736-16.896 67.072-40.96l1.536-3.072 1.536 3.072c14.848 25.6 41.984 40.96 71.68 40.96h4.608c27.648-1.536 52.736-16.896 67.072-40.96l1.536-3.072 1.536 3.072c23.04 39.424 73.728 52.736 113.152 29.184 25.088-14.848 40.96-41.984 40.96-71.168V329.216c-1.536-5.12-6.144-9.728-11.264-9.728zM83.456 338.944h857.088v63.488c0 34.816-28.16 63.488-63.488 63.488h-4.096c-31.744-2.048-56.832-27.136-59.392-58.88v-4.608c0-12.8-19.456-12.8-19.456 0 0 34.816-28.16 63.488-63.488 63.488-34.816 0-63.488-28.16-63.488-63.488 0-12.8-19.456-12.8-19.456 0 0 34.816-28.16 63.488-63.488 63.488-34.816 0-63.488-28.16-63.488-63.488 0-12.8-19.456-12.8-19.456 0 0 34.816-28.16 63.488-63.488 63.488-34.816 0-63.488-28.16-63.488-63.488 0-12.8-19.456-12.8-19.456 0C356.352 437.248 327.68 465.92 292.864 465.92s-63.488-28.16-63.488-63.488c0-12.8-19.456-12.8-19.456 0C209.92 437.248 181.76 465.92 146.944 465.92h-4.096c-33.28-2.048-59.392-29.696-59.392-62.976V338.944z" fill="#C74443" p-id="13573"></path><path d="M151.552 183.296h721.408l77.824 145.92H73.728l77.824-145.92z" fill="#EFBABA" p-id="13574"></path><path d="M872.448 173.568H151.552c-3.584 0-7.168 2.048-8.704 5.12L65.024 324.608c-2.56 4.608-0.512 10.752 4.096 13.312 1.536 0.512 3.072 1.024 4.608 1.024h876.544c5.632 0 9.728-4.608 9.728-9.728 0-1.536-0.512-3.072-1.024-4.608l-77.824-145.92c-1.536-3.072-5.12-5.12-8.704-5.12z m-5.632 19.456l67.072 126.464H90.112l67.072-126.464h709.632z" fill="#C74443" p-id="13575"></path><path d="M171.008 86.016h681.472c13.312 0 24.576 10.752 24.576 24.576v73.216H146.944V110.08c0-13.312 10.752-24.064 24.064-24.064z" fill="#F78F8F" p-id="13576"></path><path d="M852.992 76.288H171.008c-18.944 0-34.304 15.36-34.304 34.304v73.216c0 5.12 4.608 9.728 9.728 9.728h730.624c5.632 0 9.728-4.608 9.728-9.728V110.08c0-18.432-15.36-33.792-33.792-33.792z m0 19.456h2.56c7.168 1.024 12.288 7.168 12.288 14.336v63.488H156.672V110.08c0-8.192 6.656-14.848 14.848-14.848h681.472z" fill="#C74443" p-id="13577"></path><path d="M219.648 548.352h243.712v194.56H219.648v-194.56z" fill="#8BB7F0" p-id="13578"></path><path d="M463.36 538.624H219.648c-5.632 0-9.728 4.608-9.728 9.728v194.56c0 5.12 4.608 9.728 9.728 9.728h243.712c5.632 0 9.728-4.608 9.728-9.728v-194.56c0-5.12-4.608-9.728-9.728-9.728z m-9.728 19.456v175.104H229.376V558.08h224.256z" fill="#4E7AB6" p-id="13579"></path><path d="M560.64 548.352h243.712v389.632h-243.712v-389.632z" fill="#8BB7F0" p-id="13580"></path><path d="M804.352 538.624h-243.712c-5.632 0-9.728 4.608-9.728 9.728v389.632c0 5.12 4.608 9.728 9.728 9.728h243.712c5.632 0 9.728-4.608 9.728-9.728v-389.632c0-5.12-4.608-9.728-9.728-9.728z m-9.728 19.456v370.176h-223.744V558.08h223.744z" fill="#4E7AB6" p-id="13581"></path><path d="M731.136 718.848c0 13.312 10.752 24.576 24.576 24.576 13.312 0 24.576-10.752 24.576-24.576s-10.752-24.576-24.576-24.576c-13.824 0.512-24.576 11.264-24.576 24.576z" fill="#FFFFFF" p-id="13582"></path></svg>