<?xml version="1.0" standalone="no"?><!DOCTYPE svg PUBLIC "-//W3C//DTD SVG 1.1//EN" "http://www.w3.org/Graphics/SVG/1.1/DTD/svg11.dtd"><svg t="1704423278370" class="icon" viewBox="0 0 1024 1024" version="1.1" xmlns="http://www.w3.org/2000/svg" p-id="9193" xmlns:xlink="http://www.w3.org/1999/xlink" width="200" height="200"><path d="M731.513 672.656c-78.839 0-142.917 64.269-142.917 142.923 0 78.649 64.269 142.917 142.917 142.917 78.845 0 143.115-64.269 143.115-142.917 0-78.845-64.269-142.923-143.115-142.923zM731.513 938.885c-67.813 0-123.115-55.492-123.115-123.306 0-68.010 55.301-123.115 123.115-123.115 68.010 0 123.306 55.105 123.306 123.115 0 67.813-55.296 123.306-123.306 123.306z" fill="#FCB9B9" p-id="9194"></path><path d="M793.542 745.892s-25.783 9.902-53.619 51.375c-10.83 16.258-25.963 47.83-25.963 47.83s-5.232-9.536-8.596-16.258c-3.364-6.723-7.657-13.637-10.65-19.241 0 0-10.644 5.232-17.744 9.71-7.105 4.484-21.114 13.823-21.114 13.823s16.815 8.973 31.014 20.179c12.703 10.093 28.961 29.699 28.961 29.699s19.241-30.261 33.44-45.766c22.61-24.473 46.519-38.306 46.519-38.306s-4.292-11.77-4.478-22.042c-0.388-8.777 2.228-31.004 2.228-31.004z" fill="#FCB9B9" p-id="9195"></path><path d="M504.333 376.909c-0.565 1.838-0.891 3.95-0.891 6.138 0 9.811 6.541 18.094 15.5 20.726l203.238 58.518c2.053 0.748 4.107 0.934 6.165 0.934 9.524 0 17.935-6.352 20.923-15.691 3.179-11.584-3.545-23.729-14.947-26.908l-203.079-58.66c-11.584-3.364-23.729 3.545-26.908 14.942z" fill="#8FAEF2" p-id="9196" data-spm-anchor-id="a313x.search_index.0.i11.19aa3a81hsF4nw" class=""></path><path d="M939.267 188.586c-2.993-5.041-8.039-8.967-14.009-10.835l-476.223-111.908c-10.835-2.425-21.49 3.179-25.406 13.452l-171.322 455.109c-4.298 11.031 1.311 23.543 12.332 28.028 11.397 3.926 24.287-1.491 28.028-12.703l164.594-436.989 434.935 102.755c-22.796 67.628-92.662 274.077-148.903 426.525 19.939 1.786 38.306 6.596 55.292 13.986 54.191-186.057 137.886-435.842 142.37-449.478 2.048-5.98 1.3-12.332-1.687-17.94zM524.703 863.589c-64.089-41.097-43.161-115.267-42.227-118.259 0.628-1.948 0.991-4.189 0.991-6.514 0-8.416-4.746-15.723-11.707-19.391l-351.169-176.989c-6.352-3.173-13.643-3.173-19.617 0-6.352 3.184-10.835 8.973-11.955 16.067-3.364 21.294-19.055 129.843 10.273 169.639 33.817 45.401 255.58 150.771 299.669 171.136 10.835 5.418 23.729 0.562 28.961-10.273 5.041-10.835 0.186-23.921-10.65-28.961-105.556-49.136-263.242-130.963-282.853-157.866-10.093-13.457-10.835-61.095-6.165-107.058l308.45 155.44c-6.352 41.851 0.934 108.549 64.64 149.089 26.711 16.815 53.057 25.406 78.277 25.406 3.965-0.031 7.829-0.196 11.659-0.492-19.292-22.148-31.606-49.323-36.401-79.015-3.274 32.244-16.359 26.636-30.176 18.039z" fill="#9B9B9B" p-id="9197"></path><path d="M480.417 494.797c-11.584-3.55-23.353 3.179-26.717 14.762-3.364 11.392 3.364 23.538 14.762 26.717l202.894 58.66c2.053 0.748 4.107 0.934 6.16 0.934 9.158 0 17.935-6.16 20.742-15.876 3.55-11.584-3.179-23.347-14.756-26.908l-203.085-58.289z" fill="#EFCCAB" p-id="9198"></path><path d="M423.253 359.159c0 17.558 14.199 31.572 31.578 31.572 0.046 0 0.099 0 0.154 0 17.353 0 31.419-14.067 31.419-31.419 0-0.054 0-0.108 0-0.161 0-17.179-14.014-31.564-31.572-31.564-17.378 0-31.578 14.199-31.578 31.572z" fill="#8FAEF2" p-id="9199"></path><path d="M372.435 491.995c0 17.373 14.385 31.572 31.949 31.572s31.392-14.199 31.392-31.572c0-17.378-14.014-31.578-31.392-31.578-17.564 0-31.949 14.199-31.949 31.578z" fill="#EFCCAB" p-id="9200"></path><path d="M772.621 329.455c1.958 0.59 4.21 0.931 6.54 0.935-0.171-0.001-0.15-0.001-0.129-0.001 9.802 0 18.069-6.569 20.641-15.545 0.601-1.984 0.925-4.091 0.925-6.273 0-9.867-6.629-18.186-15.678-20.745l-203.237-58.516c-11.584-3.364-23.543 3.179-26.717 14.762-3.179 11.397 3.173 23.543 14.756 26.717l202.899 58.666zM505.457 195.127c-17.187 0-31.387 14.014-31.387 31.387 0 18.497 16.062 33.069 34.559 31.201 16.073-1.491 28.585-15.134 28.585-31.201 0.18-17.378-14.199-31.387-31.758-31.387z" fill="#94D3CC" p-id="9201" data-spm-anchor-id="a313x.search_index.0.i10.19aa3a81hsF4nw" class=""></path><path d="M139.903 330.389c0 0 0 0 0 0 0 14.026 11.37 25.395 25.395 25.395 14.026 0 25.395-11.37 25.395-25.395 0 0 0 0 0 0 0 0 0 0 0 0 0-14.026-11.37-25.395-25.395-25.395-14.026 0-25.395 11.37-25.395 25.395s0 0 0 0z" fill="#F49AA9" p-id="9202"></path><path d="M924.598 656.349c0 0 0 0 0 0 0 13.524 10.964 24.489 24.489 24.489 13.524 0 24.489-10.964 24.489-24.489 0 0 0 0 0 0 0 0 0 0 0 0 0-13.524-10.964-24.489-24.489-24.489-13.524 0-24.489 10.964-24.489 24.489 0 0 0 0 0 0z" fill="#B2EACF" p-id="9203"></path><path d="M860.613 121.744c0 9.836 7.973 17.809 17.809 17.809s17.809-7.973 17.809-17.809c0-9.836-7.973-17.809-17.809-17.809-9.836 0-17.809 7.973-17.809 17.809z" fill="#F4D8AB" p-id="9204"></path><path d="M127.762 906.772c0 0 0 0 0 0 0 15.639 12.678 28.317 28.317 28.317 15.639 0 28.317-12.678 28.317-28.317 0 0 0 0 0 0 0 0 0 0 0 0 0-15.639-12.678-28.317-28.317-28.317-15.639 0-28.317 12.678-28.317 28.317s0 0 0 0z" fill="#B6A5F9" p-id="9205"></path></svg>