<?xml version="1.0" standalone="no"?><!DOCTYPE svg PUBLIC "-//W3C//DTD SVG 1.1//EN" "http://www.w3.org/Graphics/SVG/1.1/DTD/svg11.dtd"><svg t="1704417438525" class="icon" viewBox="0 0 1024 1024" version="1.1" xmlns="http://www.w3.org/2000/svg" p-id="2910" xmlns:xlink="http://www.w3.org/1999/xlink" width="200" height="200"><path d="M512.000098 0a512 512 0 1 0 512 512 512 512 0 0 0-512-512z" fill="#FF5500" p-id="2911"></path><path d="M678.217241 217.417143l-166.217143 221.44-166.4-221.44a32 32 0 1 0-51.017143 38.582857l177.371429 236.251429h-119.954286a32 32 0 0 0 0 64h128v64h-128a32 32 0 0 0 0 64h128v96a32 32 0 1 0 64 0V684.068571h128a32 32 0 0 0 0-64h-128v-64h128a32 32 0 1 0 0-64h-120.137143l177.554286-236.068571a32.054857 32.054857 0 0 0-51.2-38.582857z" fill="#FFFFFF" p-id="2912"></path></svg>