<?xml version="1.0" standalone="no"?><!DOCTYPE svg PUBLIC "-//W3C//DTD SVG 1.1//EN" "http://www.w3.org/Graphics/SVG/1.1/DTD/svg11.dtd"><svg t="1704511953319" class="icon" viewBox="0 0 1024 1024" version="1.1" xmlns="http://www.w3.org/2000/svg" p-id="9448" xmlns:xlink="http://www.w3.org/1999/xlink" width="200" height="200"><path d="M655.8 474h159.5v260.2H655.8z" fill="#FDDFC1" p-id="9449"></path><path d="M850.3 769.2H620.8V439h229.5v330.2z m-159.5-70h89.5V509h-89.5v190.2z" fill="#FDDFC1" p-id="9450"></path><path d="M851.6 831.7H178c-17.6 0-32-14.4-32-32s14.4-32 32-32h673.6c17.6 0 32 14.4 32 32-0.1 17.6-14.4 32-32 32z" fill="#FDA13F" p-id="9451"></path><path d="M851.6 866.7H178c-36.9 0-67-30-67-67 0-36.9 30-67 67-67h673.6c36.9 0 67 30 67 67-0.1 37-30.1 67-67 67zM372 258.5l-30.7 23.6h61.4z" fill="#FDA13F" p-id="9452"></path><path d="M505.5 317.1h-267L372 214.4zM209.7 331.8h303.7v382.6H209.7z" fill="#FDA13F" p-id="9453"></path><path d="M548.4 749.5H174.7V296.8h373.7v452.7z m-303.7-70h233.7V366.8H244.7v312.7z" fill="#FDA13F" p-id="9454"></path><path d="M137.9 359.4c-11.8 0-23.4-6-29.9-16.8-10-16.5-4.8-38 11.7-48.1l218.4-132.7c16.5-10 38-4.8 48.1 11.7 10 16.5 4.8 38-11.7 48.1L156 354.4c-5.7 3.4-11.9 5-18.1 5z" fill="#FDA13F" p-id="9455"></path><path d="M577.9 355.9c-6.1 0-12.2-1.6-17.8-4.9L341.7 221.9c-16.6-9.8-22.2-31.3-12.3-47.9 9.8-16.6 31.3-22.2 47.9-12.3l218.4 129.1c16.6 9.8 22.2 31.3 12.3 47.9-6.5 11.1-18.1 17.2-30.1 17.2zM362.5 251.3l69.2 33.9H293.3z" fill="#FDA13F" p-id="9456"></path><path d="M582.9 320.2H142.1l220.4-107.8z" fill="#FDA13F" p-id="9457"></path><path d="M462.4 410.2H262.6c-6.6 0-12-5.4-12-12v-9.9c0-6.6 5.4-12 12-12h199.8c6.6 0 12 5.4 12 12v9.9c0 6.6-5.4 12-12 12z" fill="#FFFFFF" p-id="9458"></path><path d="M462.4 425.2H262.6c-14.9 0-27-12.1-27-27v-9.9c0-14.9 12.1-27 27-27h199.8c14.9 0 27 12.1 27 27v9.9c0 14.9-12.1 27-27 27z m-196.8-30h193.8v-3.9H265.6v3.9z" fill="#FFFFFF" p-id="9459"></path><path d="M462.4 516.1H262.6c-6.6 0-12-5.4-12-12v-9.9c0-6.6 5.4-12 12-12h199.8c6.6 0 12 5.4 12 12v9.9c0 6.6-5.4 12-12 12z" fill="#FFFFFF" p-id="9460"></path><path d="M462.4 531.1H262.6c-14.9 0-27-12.1-27-27v-9.9c0-14.9 12.1-27 27-27h199.8c14.9 0 27 12.1 27 27v9.9c0 14.9-12.1 27-27 27z m-196.8-30h193.8v-3.9H265.6v3.9z" fill="#FFFFFF" p-id="9461"></path><path d="M618 504c-10.4 0-20.6-4.6-27.5-13.4-11.9-15.2-9.3-37.2 5.9-49.1l114.7-90.2c15.2-11.9 37.2-9.3 49.1 5.9s9.3 37.2-5.9 49.1l-114.7 90.2c-6.4 5.1-14 7.5-21.6 7.5z" fill="#FDDFC1" p-id="9462"></path><path d="M849.1 501.6c-7.4 0-14.9-2.4-21.2-7.2l-114.7-87.8c-15.4-11.7-18.3-33.7-6.5-49.1 11.7-15.4 33.7-18.3 49.1-6.5l114.7 87.8c15.4 11.7 18.3 33.7 6.5 49.1-6.9 9-17.3 13.7-27.9 13.7z" fill="#FDDFC1" p-id="9463"></path><path d="M729.1 419.3l26.2 23h-52.5z" fill="#FDDFC1" p-id="9464"></path><path d="M848.5 477.3H609.7l119.4-104.5z" fill="#FDDFC1" p-id="9465"></path><path d="M784.1 544.4h-96.3c-5.9 0-10.7-4.8-10.7-10.7 0-5.9 4.8-10.7 10.7-10.7h96.3c5.9 0 10.7 4.8 10.7 10.7 0 5.9-4.8 10.7-10.7 10.7z" fill="#FFFFFF" p-id="9466"></path><path d="M784.1 555.9h-96.3c-12.2 0-22.2-9.9-22.2-22.2 0-12.2 9.9-22.1 22.2-22.1h96.3c12.2 0 22.1 9.9 22.1 22.1 0.1 12.2-9.8 22.2-22.1 22.2z m0-21.3z" fill="#FFFFFF" p-id="9467"></path><path d="M568.2 622.7m-130.7 0a130.7 130.7 0 1 0 261.4 0 130.7 130.7 0 1 0-261.4 0Z" fill="#FFFFFF" p-id="9468"></path><path d="M568.2 764.8C489.8 764.8 426 701 426 622.6s63.8-142.2 142.2-142.2 142.2 63.8 142.2 142.2-63.8 142.2-142.2 142.2z m0-261.3C502.5 503.5 449 557 449 622.7s53.5 119.2 119.2 119.2 119.2-53.5 119.2-119.2-53.5-119.2-119.2-119.2z" fill="#FFFFFF" p-id="9469"></path><path d="M650.4 608H489.6c-8.3 0-15-6.7-15-15s6.7-15 15-15h160.8c8.3 0 15 6.7 15 15s-6.7 15-15 15z" fill="#FDA140" p-id="9470"></path><path d="M489.9 608c-4 0-8-1.6-11-4.8-5.7-6-5.3-15.5 0.7-21.2l42.8-40.1c6-5.7 15.5-5.3 21.2 0.7 5.7 6 5.3 15.5-0.7 21.2L500.1 604c-2.8 2.7-6.5 4-10.2 4z" fill="#FDA140" p-id="9471"></path><path d="M650.4 670H489.6c-8.3 0-15-6.7-15-15s6.7-15 15-15h160.8c8.3 0 15 6.7 15 15s-6.7 15-15 15z" fill="#FDA140" p-id="9472"></path><path d="M607.3 710c-4 0-8-1.6-11-4.8-5.7-6-5.3-15.5 0.7-21.2l42.8-40.1c6-5.7 15.5-5.3 21.2 0.7 5.7 6 5.3 15.5-0.7 21.2L617.5 706c-2.9 2.7-6.5 4-10.2 4z" fill="#FDA140" p-id="9473"></path></svg>