<?xml version="1.0" standalone="no"?><!DOCTYPE svg PUBLIC "-//W3C//DTD SVG 1.1//EN" "http://www.w3.org/Graphics/SVG/1.1/DTD/svg11.dtd"><svg t="1704512094572" class="icon" viewBox="0 0 1174 1024" version="1.1" xmlns="http://www.w3.org/2000/svg" p-id="14791" xmlns:xlink="http://www.w3.org/1999/xlink" width="229.296875" height="200"><path d="M970.640199 523.434243v337.94541c0 73.687345-58.441687 134.669975-132.129033 134.669975H337.945409c-73.687345 0-132.129032-60.98263-132.129032-134.669975V523.434243H30.491315l559.007444-495.483871 559.007444 495.483871h-177.866004z" fill="#FDDFDF" p-id="14792"></path><path d="M838.511166 1021.459057H337.945409c-86.39206 0-157.538462-71.146402-157.538461-160.079404V548.843672H30.491315c-10.163772 0-20.327543-7.622829-22.868486-15.245657-2.540943-10.163772 0-20.327543 7.622829-27.950372L574.253102 10.163772c10.163772-7.622829 22.868486-7.622829 33.032258 0l559.007444 495.483871c7.622829 7.622829 10.163772 17.7866 7.622829 27.950372-2.540943 10.163772-12.704715 15.245658-22.868487 15.245657h-149.915632v312.535981c-5.081886 88.933002-76.228288 160.079404-162.620348 160.079404zM96.555831 498.024814H203.275434c15.245658 0 25.409429 10.163772 25.40943 25.409429v337.94541c0 60.98263 48.277916 109.260546 106.719603 109.260546H838.511166c58.441687 0 106.719603-48.277916 106.719603-109.260546V523.434243c0-15.245658 10.163772-25.409429 25.40943-25.409429h109.260545L589.498759 63.523573 96.555831 498.024814z" fill="#EE9B9B" p-id="14793"></path><path d="M589.498759 487.861042c-55.900744-129.588089-210.898263-99.096774-213.439206 50.818859 0 83.851117 73.687345 114.342432 124.506204 147.37469 48.277916 33.032258 83.851117 76.228288 88.933002 94.014888 5.081886-17.7866 43.19603-63.523573 88.933003-96.555831 48.277916-35.573201 124.506203-63.523573 124.506203-147.37469-2.540943-149.915633-162.620347-172.784119-213.439206-48.277916z" fill="#E59797" p-id="14794"></path></svg>