<?xml version="1.0" standalone="no"?><!DOCTYPE svg PUBLIC "-//W3C//DTD SVG 1.1//EN" "http://www.w3.org/Graphics/SVG/1.1/DTD/svg11.dtd"><svg t="1704707054457" class="icon" viewBox="0 0 1024 1024" version="1.1" xmlns="http://www.w3.org/2000/svg" p-id="5128" xmlns:xlink="http://www.w3.org/1999/xlink" width="200" height="200"><path d="M512 792C264.5 792 64 541.6 64 512c0-29.6 200.5-280 448-280s448 248.3 448 280c0 31.7-200.5 280-448 280z" fill="#B1B1B1" p-id="5129"></path><path d="M512 512m-140 0a140 140 0 1 0 280 0 140 140 0 1 0-280 0Z" fill="#FFFFFF" p-id="5130"></path><path d="M512 512m-84 0a84 84 0 1 0 168 0 84 84 0 1 0-168 0Z" fill="#B1B1B1" p-id="5131"></path></svg>